<svg width="64" height="24" viewBox="0 0 64 24" fill="none" xmlns="http://www.w3.org/2000/svg">
<path d="M45.3301 0.293068L63.4165 11.0796C64.1942 11.5435 64.1942 12.5493 63.4165 13.0132L45.3323 23.7976C44.7103 24.1687 43.8611 24.0147 43.4568 23.4581L43.2349 23.1513C42.0615 21.535 42.5789 19.3906 44.3977 18.33L55.1969 12.0348C55.1984 12.034 55.1998 12.0328 55.2007 12.0313C55.2016 12.0298 55.2021 12.0281 55.2021 12.0263C55.2021 12.0246 55.2016 12.0229 55.2007 12.0214C55.1998 12.0199 55.1984 12.0187 55.1969 12.0179L44.4009 5.75432C42.581 4.70003 42.0615 2.55664 43.2339 0.942515L43.459 0.632552C43.8622 0.0769377 44.7092 -0.0769896 45.3301 0.293068Z" fill="white"/>
<path d="M37.8178 2.214L38.2125 2.29729C38.5515 2.36865 38.848 2.57006 39.0368 2.85729C39.2256 3.14452 39.2913 3.49408 39.2196 3.82918L35.5381 20.9415C35.3937 21.6119 34.9858 22.1983 34.404 22.5716C33.8222 22.9448 33.1143 23.0745 32.4358 22.932L32.0422 22.8487C31.8743 22.8135 31.715 22.7459 31.5735 22.6499C31.432 22.5538 31.3111 22.4312 31.2176 22.2889C31.124 22.1467 31.0598 21.9876 31.0285 21.8208C30.9972 21.654 30.9995 21.4827 31.0351 21.3168L34.7166 4.20029C34.8617 3.53068 35.2699 2.94538 35.8513 2.57294C36.4328 2.20051 37.1401 2.07141 37.8178 2.214Z" fill="white"/>
<path d="M0.232688 20.9447L12.6213 0.654718C13.1547 -0.218239 14.309 -0.218239 14.8413 0.654718L27.2289 20.9425C27.6556 21.6405 27.4785 22.5925 26.8385 23.0511L26.4875 23.2999C24.6302 24.6168 22.1681 24.038 20.9498 21.9958L13.718 9.87559C13.7171 9.87381 13.7158 9.87231 13.7141 9.87126C13.7124 9.8702 13.7104 9.86965 13.7084 9.86965C13.7064 9.86965 13.7044 9.8702 13.7027 9.87126C13.701 9.87231 13.6997 9.87381 13.6988 9.87559L6.50755 21.9873C5.29248 24.0285 2.83246 24.6115 0.977309 23.2999L0.621 23.0469C-0.0169408 22.5915 -0.192961 21.6415 0.232688 20.9447Z" fill="white"/>
</svg>
